<svg id="Layer_1" data-name="Layer 1" xmlns="http://www.w3.org/2000/svg" xmlns:xlink="http://www.w3.org/1999/xlink" viewBox="0 0 1280 250"><defs><style>.cls-1{fill:url(#radial-gradient);}.cls-2{clip-path:url(#clip-path);}.cls-3{opacity:0.5;}.cls-4{opacity:0.2;}.cls-5{fill:none;stroke:#fff;stroke-miterlimit:10;stroke-width:2.49px;}</style><radialGradient id="radial-gradient" cx="640" cy="-109.03" r="473.86" gradientTransform="translate(0 193.51) scale(1 0.63)" gradientUnits="userSpaceOnUse"><stop offset="0" stop-color="#064368"/><stop offset="1" stop-color="#003348"/></radialGradient><clipPath id="clip-path"><rect id="SVGID" class="cls-1" y="-0.34" width="1280" height="250.34"/></clipPath></defs><title>banner-internal</title><rect id="SVGID-2" data-name="SVGID" class="cls-1" y="-0.34" width="1280" height="250.34"/><g class="cls-2"><g class="cls-3"><g class="cls-4"><path class="cls-5" d="M679,68.14c0,31.9-3.56,56.09-24.47,77s-45.09,27.49-77,27.49-55.41-7.27-76.32-28.17S465.67,100,465.67,68.14s20.24-49.8,41.15-70.71,38.81-39.61,70.71-39.61,66.06,2.44,87,23.35S679,36.24,679,68.14Z"/><path class="cls-5" d="M672.16,79.51c0,50.66-51.54,86.66-102.2,86.66s-84.21-36-84.21-86.66S519.3-22.28,570-22.28,672.16,28.85,672.16,79.51Z"/><path class="cls-5" d="M640.2,80.86c0,43.34-26.63,81.63-70,81.63s-77.54-38.29-77.54-81.63,34.2-86.58,77.54-86.58S640.2,37.52,640.2,80.86Z"/><path class="cls-5" d="M622.36,80.59c0,33.62-23.65,53-57.27,53S496,114.21,496,80.59s35.44-58.25,69.06-58.25S622.36,47,622.36,80.59Z"/></g><g class="cls-4"><path class="cls-5" d="M1139.13,26.62c0,43.83-18.07,90.2-46.79,118.92s-75.09,21.83-118.92,21.83-71.25-12.06-100-40.78-36.87-56.14-36.87-100-11.9-91.29,16.82-120,76.19-28.21,120-28.21,87.45,3.33,116.17,32.06S1139.13-17.21,1139.13,26.62Z"/><path class="cls-5" d="M1103.81,42.23c0,69.59-71.21,139.64-140.8,139.64S851.63,111.82,851.63,42.23,893.42-70.7,963-70.7,1103.81-27.36,1103.81,42.23Z"/><path class="cls-5" d="M1078.1,44.09c0,59.53-55.19,114.42-114.72,114.42s-106-54.89-106-114.42,46.42-104.43,106-104.43S1078.1-15.44,1078.1,44.09Z"/><path class="cls-5" d="M1029.69,43.72c0,46.19-27.19,78.42-73.38,78.42s-73.53-32.23-73.53-78.42,27.34-77.54,73.53-77.54S1029.69-2.47,1029.69,43.72Z"/></g><g class="cls-4"><path class="cls-5" d="M832.07,237c-8.45,28.26-19.2,49.43-38.8,64.88-22.8,18-47.23,32.45-73.17,24.69S685,292.15,675.82,264.61c-7.91-23.67-15.08-48.09-6.63-76.35s15.5-60.39,35.1-75.84c22.8-18,57.59-20.18,83.53-12.42s44.23,31.89,53.43,59.43C849.16,183.1,840.52,208.7,832.07,237Z"/><path class="cls-5" d="M822.29,245.89c-14.51,48.54-65.45,76.43-103.75,65s-68.51-63.6-54-112.14,71.69-86.6,110-75.15S836.8,197.36,822.29,245.89Z"/><path class="cls-5" d="M794.92,239.12c-12.41,41.52-39.39,68.16-72.15,58.37S671.84,247.56,684.25,206s47.86-59.2,80.62-49.4S807.33,197.6,794.92,239.12Z"/><path class="cls-5" d="M787,236.49c-9.63,32.21-38.44,53-63.86,45.43s-44.06-42.6-34.43-74.82,44.8-52.48,70.22-44.88S796.67,204.27,787,236.49Z"/></g><g class="cls-4"><path class="cls-5" d="M1285.84,17.81c21.27,11.76,33.8,29.83,42.8,48.32,10.47,21.51,11.51,41,.71,60.51s-28.28,25-52.06,27.58c-20.44,2.21-39.51.71-60.78-11S1180,117.9,1171,99.41C1160.58,77.9,1162,59.56,1172.76,40s25.11-35,48.89-37.54C1242.1.28,1264.58,6.05,1285.84,17.81Z"/><path class="cls-5" d="M1288.6,32.17c36.52,20.2,50.31,67.74,34.37,96.57s-57.52,31.52-94,11.32-53.34-55.19-37.4-84S1252.08,12,1288.6,32.17Z"/><path class="cls-5" d="M1280.7,48.75c31.24,17.28,52.64,53.33,39,78s-52.86,20.83-84.1,3.55-54.17-47.83-40.53-72.48S1249.46,31.47,1280.7,48.75Z"/><path class="cls-5" d="M1271,65.86c24.24,13.41,43.85,37,33.27,56.15s-40.94,15-65.18,1.55-36.61-32.87-26-52S1246.75,52.45,1271,65.86Z"/></g><g class="cls-4"><path class="cls-5" d="M1248,183.24c34.29,19,63.56,53.17,78.07,83,16.87,34.68,16.63,81.9-.78,113.38s-59.78,33.61-98.12,37.75c-33,3.56-69,9.29-103.29-9.68s-49.56-52.06-64.06-81.88c-16.87-34.68-40-74-22.61-105.52s62.4-38.8,100.75-42.94C1170.87,173.77,1213.67,164.27,1248,183.24Z"/><path class="cls-5" d="M1242.18,224.87c58.89,32.57,72.26,97.15,46.56,143.62s-76.93,50.33-135.82,17.76-83.18-78.19-57.48-124.67S1183.29,192.3,1242.18,224.87Z"/><path class="cls-5" d="M1228.12,254c50.38,27.86,76.12,70.8,54.13,110.56s-74.92,46-125.29,18.11-69.66-74-47.67-113.77S1177.74,226.15,1228.12,254Z"/></g></g></g></svg>